<svg width="78" height="76" fill="none" xmlns="http://www.w3.org/2000/svg"><circle cx="39" cy="38" r="37" fill="#C4C4C4" fill-opacity=".02"/><path d="M77.103 37.655c0-4.945-.997-9.841-2.934-14.41a37.61 37.61 0 0 0-8.357-12.216 38.627 38.627 0 0 0-12.507-8.163A39.35 39.35 0 0 0 38.552 0a39.35 39.35 0 0 0-14.753 2.866A38.627 38.627 0 0 0 11.29 11.03a37.61 37.61 0 0 0-8.356 12.216A36.896 36.896 0 0 0 0 37.655h2.699c0-4.599.927-9.152 2.729-13.401A34.976 34.976 0 0 1 13.2 12.893a35.922 35.922 0 0 1 11.63-7.591 36.595 36.595 0 0 1 13.72-2.666c4.709 0 9.371.906 13.721 2.666a35.922 35.922 0 0 1 11.632 7.59 34.975 34.975 0 0 1 7.772 11.362 34.313 34.313 0 0 1 2.729 13.401h2.698Z" fill="#C4C4C4"/></svg>