<svg width="60" height="60" fill="none" xmlns="http://www.w3.org/2000/svg">
    <circle cx="30" cy="30" r="30" fill="#F7DEDE" fill-opacity=".0" />
    <path fill-rule="evenodd" clip-rule="evenodd"
        d="M19.168 28.249a5.168 5.168 0 0 1-.696-10.29 7.463 7.463 0 0 1 13.014-6.312 6.764 6.764 0 0 1 10.328 5.751v.018a5.426 5.426 0 0 1-.44 10.833H19.167Zm5.717 4.93c0 1.2-.913 2.174-2.04 2.174-1.125 0-2.038-.973-2.038-2.174 0-.757.81-1.723 1.408-2.334a.882.882 0 0 1 1.261 0c.599.61 1.409 1.577 1.409 2.334Zm13.068 2.174c1.126 0 2.04-.973 2.04-2.174 0-.757-.81-1.723-1.41-2.334a.882.882 0 0 0-1.26 0c-.599.61-1.409 1.577-1.409 2.334 0 1.2.913 2.174 2.04 2.174Zm-5.515 1.355c0 1.201-.912 2.175-2.039 2.175-1.126 0-2.039-.974-2.039-2.175 0-.757.81-1.723 1.41-2.334a.882.882 0 0 1 1.26 0c.599.611 1.408 1.577 1.408 2.334Zm3.602 8.666a1 1 0 1 0-1.414-1.414L30 48.586l-4.626-4.626a1 1 0 1 0-1.414 1.414l5.333 5.333a1 1 0 0 0 1.414 0l5.333-5.333Z"
        fill="#A2BFA2" />
</svg>