<svg width="48" height="63" fill="none" xmlns="http://www.w3.org/2000/svg"><path d="M36.916 22.205 22.973 0v58.869c21.172-2.066 29.229-17.9 20.14-42.86l-6.197 6.196Z" fill="#E48A71"/><path d="m29.17 37.815-6.197-9.93V58.87c12.394-2.582 15.628-11.493 10.844-23.754l-4.647 2.7Z" fill="#ECBB88"/><path d="M9.856 22.205 22.973 0l.825 58.869c-20.964-1.55-29.228-17.9-20.14-42.86l6.198 6.196Z" fill="#ECBB88"/><path d="m16.981 37.815 6.197-9.93V58.87C12.334 57.319 7.55 47.376 12.334 35.115l4.647 2.7Z" fill="#F6E4A7"/><path d="m32.832 56.23 5.846-3.774-6.003-7.076-10.918 9.676 11.075 1.174Z" fill="#A4735A"/><path fill-rule="evenodd" clip-rule="evenodd" d="M39.223 45.776a4.638 4.638 0 1 1-7.863 4.57l-6.221 5.069-3.382-.359 10.918-9.676a4.638 4.638 0 0 1 6.548.396Z" fill="#825B47"/><path d="M12.642 54.913 9.274 52.87l-.14-.16 6.045-7.015.153.177 7.924 9.042H12.642Z" fill="#A4735A"/><path d="M15.373 45.86a4.66 4.66 0 0 0-6.57-.002 4.615 4.615 0 0 0-.016 6.545 4.66 4.66 0 0 0 6.57.002 4.615 4.615 0 0 0 .016-6.545Z" fill="#825B47"/><path d="M3.528 63h38.59c3.116 0 5.642-2.08 5.642-4.648 0-2.566-2.526-4.647-5.641-4.647H3.529V63Z" fill="#825B47"/><path fill-rule="evenodd" clip-rule="evenodd" d="M.252 58.343c0-2.562 1.647-4.638 3.678-4.638 2.032 0 3.679 2.076 3.679 4.638 0 .547-.075 1.071-.213 1.559H47.76C47.049 61.696 44.89 63 42.336 63H3.528v-.046C1.686 62.7.252 60.734.252 58.343Z" fill="#A4735A"/></svg>