<svg width="60" height="60" fill="none" xmlns="http://www.w3.org/2000/svg">
    <circle cx="30" cy="30" r="30" fill="#F03D3D" fill-opacity=".00" />
    <path fill-rule="evenodd" clip-rule="evenodd"
        d="M30.5 9C22.494 9 16 15.493 16 23.5 16 31.506 22.494 38 30.5 38 38.507 38 45 31.506 45 23.5 45 15.493 38.507 9 30.5 9Zm0 27.74c-7.313 0-13.24-5.927-13.24-13.24 0-7.313 5.927-13.24 13.24-13.24 7.313 0 13.24 5.927 13.24 13.24 0 7.313-5.927 13.24-13.24 13.24Zm.63-23.642c0 .347-.283.63-.63.63a.632.632 0 0 1-.63-.63v-.315a.631.631 0 0 1 1.26 0v.315Zm-1.26 20.804a.631.631 0 0 1 1.26 0v.315c0 .347-.283.63-.63.63a.632.632 0 0 1-.63-.63v-.315ZM20.098 22.87h-.315a.632.632 0 0 0-.63.63c0 .347.283.63.63.63h.315c.347 0 .63-.283.63-.63a.632.632 0 0 0-.63-.63Zm20.804 0h.315a.631.631 0 0 1 0 1.26h-.315a.632.632 0 0 1-.63-.63c0-.347.283-.63.63-.63Zm-17.526-7.377a.61.61 0 0 0-.883 0 .61.61 0 0 0 0 .883l.221.22a.62.62 0 0 0 .441.19.622.622 0 0 0 .442-.19.61.61 0 0 0 0-.882l-.22-.22Zm-.883 15.13.221-.22a.61.61 0 0 1 .883 0 .61.61 0 0 1 0 .883l-.22.22a.622.622 0 0 1-.442.19.622.622 0 0 1-.441-.19.61.61 0 0 1 0-.882Zm15.13-15.13-.22.221a.61.61 0 0 0 0 .883.623.623 0 0 0 .442.189.622.622 0 0 0 .44-.19l.222-.22a.61.61 0 0 0 0-.883.61.61 0 0 0-.883 0Zm-6.493 2.018v5.737l6.715 6.714a.61.61 0 0 1 0 .883.622.622 0 0 1-.442.189.622.622 0 0 1-.441-.19l-6.903-6.903a.622.622 0 0 1-.19-.441v-5.99c0-.346.284-.63.631-.63.347 0 .63.284.63.63Zm5.91 27.863a1 1 0 1 0-1.414-1.414L31 48.586l-4.626-4.626a1 1 0 1 0-1.414 1.414l5.333 5.333a1 1 0 0 0 1.414 0l5.333-5.333Z"
        fill="#A2BFA2" />
</svg>