<svg width="54" height="50" fill="none" xmlns="http://www.w3.org/2000/svg"><path d="M34.577 25.542c6.134 0 11.107-4.973 11.107-11.107 0-6.134-4.973-11.107-11.107-11.107-6.135 0-11.108 4.973-11.108 11.107 0 6.134 4.973 11.107 11.108 11.107Z" fill="#9FCBA5"/><path d="M19.364 25.154c6.768 0 12.255-5.486 12.255-12.254S26.132.646 19.364.646C12.596.646 7.11 6.132 7.11 12.9s5.487 12.254 12.254 12.254Zm25.596 7.098a8.908 8.908 0 1 0 0-17.817 8.908 8.908 0 0 0 0 17.817Z" fill="#9FCBA5"/><path d="M8.498 32.251a8.486 8.486 0 1 0 0-16.97 8.486 8.486 0 0 0 0 16.97Z" fill="#9FCBA5"/><path d="M44.96 18.997H8.497v13.255H44.96V18.997Z" fill="#9FCBA5"/><path d="M17.885 40.346c0 1.973-1.499 3.571-3.348 3.571-1.849 0-3.348-1.599-3.348-3.57 0-1.243 1.33-2.83 2.313-3.833a1.448 1.448 0 0 1 2.07 0c.983 1.003 2.313 2.59 2.313 3.832Zm24.806 0c0 1.973-1.499 3.571-3.348 3.571-1.849 0-3.348-1.598-3.348-3.57 0-1.243 1.33-2.83 2.313-3.833a1.448 1.448 0 0 1 2.07 0c.984 1.003 2.313 2.59 2.313 3.832Zm-12.403 5.796c0 1.972-1.499 3.57-3.348 3.57-1.849 0-3.348-1.598-3.348-3.57 0-1.243 1.33-2.83 2.313-3.833a1.448 1.448 0 0 1 2.07 0c.984 1.004 2.313 2.59 2.313 3.833Z" fill="#2B7B57"/></svg>