<svg width="61" height="61" fill="none" xmlns="http://www.w3.org/2000/svg"><g clip-path="url(#sun__a)"><path d="m59.099 28.196-10.336-5.168 3.654-10.963a2.752 2.752 0 0 0-3.482-3.482l-10.963 3.655L32.804 1.9a2.752 2.752 0 0 0-4.924 0l-5.168 10.337-10.964-3.655a2.752 2.752 0 0 0-3.481 3.482l3.654 10.963-10.336 5.168a2.752 2.752 0 0 0 0 4.924l10.336 5.168-3.654 10.964a2.752 2.752 0 0 0 3.481 3.481l10.964-3.654 5.168 10.336a2.752 2.752 0 0 0 4.924 0l5.168-10.336 10.963 3.654a2.753 2.753 0 0 0 3.482-3.481l-3.654-10.964 10.336-5.168a2.753 2.753 0 0 0 0-4.924Z" fill="#EFC484"/><path d="m59.099 28.196-10.337-5.168 3.655-10.963a2.752 2.752 0 0 0-3.482-3.482l-10.963 3.655L32.804 1.9A2.752 2.752 0 0 0 30.342.38v60.557a2.752 2.752 0 0 0 2.462-1.522l5.168-10.336 10.963 3.654a2.752 2.752 0 0 0 3.482-3.481l-3.655-10.964L59.1 33.12a2.753 2.753 0 0 0 0-4.924Z" fill="#EFC484"/><path d="M30.342 14.143c-9.107 0-16.516 7.409-16.516 16.515 0 9.107 7.409 16.516 16.516 16.516 9.106 0 16.515-7.409 16.515-16.516 0-9.106-7.409-16.515-16.515-16.515Z" fill="#FAE89A"/><path d="M30.342 14.143v33.03c9.106 0 16.515-7.408 16.515-16.515 0-9.106-7.409-16.515-16.515-16.515Z" fill="#FFECC5"/></g><defs><clipPath id="sun__a"><path fill="#fff" transform="translate(.063 .38)" d="M0 0h60.557v60.557H0z"/></clipPath></defs></svg>