<svg width="351" height="352" fill="none" xmlns="http://www.w3.org/2000/svg">
    <path opacity=".7" fill-rule="evenodd" clip-rule="evenodd"
        d="M178.529 5.3c.051-2.912 2.455-5.238 5.363-5.099a175.31 175.31 0 0 1 79.944 23.686 175.626 175.626 0 0 1 62.76 62.464 175.94 175.94 0 0 1 24.353 85.189 175.974 175.974 0 0 1-17.854 81.56c-1.28 2.615-4.477 3.598-7.051 2.237-2.569-1.358-3.544-4.537-2.272-7.15a165.419 165.419 0 0 0-6.242-156.472A165.094 165.094 0 0 0 258.536 33a164.795 164.795 0 0 0-74.832-22.25c-2.908-.145-5.227-2.538-5.175-5.45Zm144.437 259.11c1.66.998 2.201 3.155 1.172 4.797a175.623 175.623 0 0 1-58.861 57.573 175.32 175.32 0 0 1-78.58 24.379c-1.938.124-3.58-1.383-3.665-3.323-.085-1.939 1.419-3.576 3.356-3.702a168.305 168.305 0 0 0 75.298-23.395 168.588 168.588 0 0 0 56.427-55.144c1.033-1.643 3.189-2.185 4.853-1.185Zm-156.737 86.862c3.393.179 6.198-2.537 6.258-5.934.06-3.396-2.647-6.187-6.039-6.375a163.11 163.11 0 0 1-106.592-47.858c-29.918-30.083-46.973-70.645-47.556-113.1A163.589 163.589 0 0 1 56.734 63.639a163.12 163.12 0 0 1 105.239-50.774c3.385-.281 6.014-3.145 5.861-6.539-.154-3.394-3.033-6.032-6.42-5.76A175.398 175.398 0 0 0 47.794 55.2 175.9 175.9 0 0 0 .018 178.174c.626 45.65 18.965 89.265 51.135 121.613a175.382 175.382 0 0 0 115.077 51.485Z"
        fill="url(#outer-gradient-circle__a)" fill-opacity=".7" />
    <defs>
        <linearGradient id="outer-gradient-circle__a" x1="0" y1="0" x2="351.517" y2="351"
            gradientUnits="userSpaceOnUse">
            <stop stop-color="#002661" />
            <stop offset="1" stop-color="#92FFC0" />
        </linearGradient>
    </defs>
</svg>